<svg version="1.2" xmlns="http://www.w3.org/2000/svg" xmlns:xlink="http://www.w3.org/1999/xlink" overflow="visible" preserveAspectRatio="none" viewBox="0 0 538 224.1999969482422" xml:space="preserve" y="0px" x="0px" id="Layer_1_1676996862570" width="116" height="48"><g transform="translate(1, 1)"><style type="text/css">
	.st0_1676996862570{fill:#FDE467;}
	.st1_1676996862570{fill:#55CD87;}
	.st2_1676996862570{fill:#45AD6D;}
	.st3_1676996862570{fill:#946657;}
	.st4_1676996862570{fill:#E75480;}
	.st5_1676996862570{fill:#FDB67C;}
	.st6_1676996862570{fill:#4D98FF;}
	.st7_1676996862570{fill:#BB8FFE;}
	.st8_1676996862570{fill:#FDBFEF;}
	.st9_1676996862570{fill:#98D9F3;}
	.st10_1676996862570{fill:#720000;}
	.st11_1676996862570{fill:#BB5CE0;}
	.st12_1676996862570{fill:#BCA0EF;}
	.st13_1676996862570{fill:#FD7F3C;}
	.st14_1676996862570{fill:#CC081C;}
	.st15_1676996862570{fill:#267C8F;}
	.st16_1676996862570{fill:#3161FF;}
</style><g>
	<path d="M63.3,213.9c-0.3,0.1-0.6,0.1-0.9,0L0.7,186.5c-0.3-0.1-0.5-0.4-0.6-0.7s-0.1-0.6,0-0.9l4.7-10.7c0.1-0.3,0.4-0.5,0.7-0.6   c0.3-0.1,0.6-0.1,0.9,0l51.3,22.7c0.3,0.1,0.5,0,0.7-0.2l8.5-19.2c0.1-0.3,0.4-0.5,0.7-0.6c0.3-0.1,0.6-0.1,0.9,0l8.9,3.9   c0.3,0.1,0.5,0.4,0.6,0.7c0.1,0.3,0.1,0.6,0,0.9L64,213.2C63.8,213.6,63.6,213.8,63.3,213.9L63.3,213.9z" vector-effect="non-scaling-stroke"/>
	<path d="M78.5,172.7c-4.9,1-9.7-0.1-14.4-3.4l-27.7-19.2c-4.7-3.3-7.4-7.4-8.2-12.3c-0.8-4.9,0.6-9.9,4-14.8   c3.4-4.9,7.6-7.9,12.5-8.9c4.9-1,9.7,0.1,14.4,3.3l3.1,2.2c0.3,0.2,0.4,0.5,0.5,0.8c0.1,0.3,0,0.6-0.2,0.9l-6.6,9.6   c-0.2,0.3-0.5,0.4-0.8,0.5c-0.3,0.1-0.6,0-0.9-0.2l-3.3-2.3c-1.6-1.1-3.3-1.6-4.9-1.5c-1.6,0.2-2.9,1-4,2.5c-1,1.4-1.3,2.9-0.9,4.5   c0.4,1.6,1.4,2.9,3.1,4.1l27.9,19.3c1.6,1.1,3.3,1.6,4.9,1.5c1.6-0.2,2.9-1,3.9-2.4c1-1.5,1.3-3,0.9-4.6c-0.4-1.6-1.4-2.9-3.1-4.1   l-6.6-4.5c-0.3-0.2-0.5-0.1-0.7,0.1l-2.5,3.6c-0.2,0.3-0.5,0.4-0.8,0.5c-0.3,0.1-0.6,0-0.9-0.2l-7.3-5.1c-0.3-0.2-0.4-0.4-0.5-0.8   c-0.1-0.3,0-0.6,0.2-0.9L70,126.4c0.2-0.3,0.5-0.4,0.8-0.5c0.3-0.1,0.6,0,0.9,0.2l15.2,10.5c4.7,3.3,7.4,7.4,8.1,12.3   c0.7,5-0.6,9.9-4,14.8S83.4,171.7,78.5,172.7L78.5,172.7z" vector-effect="non-scaling-stroke"/>
	<path d="M124.7,117.2c-0.3,5-2.6,9.5-6.9,13.7l-13.5,13.2c-0.2,0.2-0.5,0.4-0.8,0.3c-0.3,0-0.6-0.1-0.8-0.4L55.5,95.8   c-0.2-0.2-0.4-0.5-0.3-0.9c0-0.3,0.1-0.6,0.4-0.8l11.9-11.6C72.2,77.8,77,75.3,82,75c4.9-0.3,9.6,1.8,14,6.3   c4.6,4.7,6.3,9.7,5.2,15c0,0.3,0.1,0.5,0.3,0.5c6.4-1,12.1,1.1,17.2,6.3C123,107.6,125,112.3,124.7,117.2L124.7,117.2z M73.5,94.1   l10.9,11.2c0.2,0.2,0.5,0.2,0.7,0l2.6-2.5c1.6-1.6,2.4-3.3,2.3-5.2c-0.1-1.9-1-3.8-2.9-5.6c-1.9-2-3.8-3-5.7-3.2s-3.7,0.5-5.4,2.2   l-2.6,2.5C73.3,93.6,73.3,93.9,73.5,94.1L73.5,94.1z M110.6,117.6c-0.2-2-1.3-4.1-3.4-6.2c-2-2.1-4.1-3.3-6.2-3.7   c-2.1-0.4-3.9,0.2-5.5,1.7l-3.2,3.1c-0.2,0.2-0.2,0.5,0,0.7l12.4,12.7c0.2,0.2,0.5,0.2,0.7,0l3.1-3.1   C110.1,121.4,110.8,119.7,110.6,117.6L110.6,117.6z" vector-effect="non-scaling-stroke"/>
	<path d="M121.5,40.2c0.3,0.1,0.6,0.2,0.8,0.5l5.5,7.9c0.2,0.3,0.3,0.6,0.2,0.9c-0.1,0.3-0.2,0.6-0.5,0.8l-10.2,7.1   c-0.3,0.2-0.3,0.4-0.1,0.7l32.1,46c0.2,0.3,0.3,0.6,0.2,0.9s-0.2,0.6-0.5,0.8l-9.6,6.7c-0.3,0.2-0.6,0.3-0.9,0.2   c-0.3-0.1-0.6-0.2-0.8-0.5l-32.1-46c-0.2-0.3-0.4-0.3-0.7-0.1L95.1,73c-0.3,0.2-0.6,0.3-0.9,0.2c-0.3-0.1-0.6-0.2-0.8-0.5l-5.5-7.9   c-0.2-0.3-0.3-0.6-0.2-0.9s0.2-0.6,0.5-0.8l32.4-22.6C120.9,40.2,121.2,40.2,121.5,40.2L121.5,40.2z" vector-effect="non-scaling-stroke"/>
	<path d="M186.3,18l-21.5,8.1c-0.2,0.1-0.3,0.3-0.2,0.5l8.7,23.2c0.1,0.2,0.3,0.3,0.5,0.2l13.5-5.1c0.6-0.2,1,0,1.3,0.6l1.5,4   c0.2,0.6,0,1-0.6,1.3L176,55.9c-0.2,0.1-0.3,0.3-0.2,0.5l10.7,28.5c0.2,0.6,0,1-0.6,1.3l-4.8,1.8c-0.6,0.2-1,0-1.3-0.6L156,23.9   c-0.2-0.6,0-1,0.6-1.3l27.6-10.3c0.6-0.2,1,0,1.3,0.6l1.5,3.9C187.1,17.4,186.9,17.8,186.3,18L186.3,18z" vector-effect="non-scaling-stroke"/>
	<path d="M211.2,73.2c-3.7-2.5-6.1-6.3-7.2-11.5l-7.4-35.8c-1.1-5.1-0.4-9.6,2.1-13.4c2.5-3.8,6.2-6.2,11.2-7.2   c5.1-1,9.5-0.3,13.3,2.1s6.2,6.3,7.3,11.4l7.4,35.8c1,5.1,0.3,9.5-2.1,13.3c-2.5,3.8-6.2,6.2-11.3,7.3   C219.3,76.4,214.9,75.6,211.2,73.2L211.2,73.2z M229.7,64.8c1.5-2.4,1.8-5.1,1.2-8.2l-7.5-36.5c-0.7-3.2-2.1-5.6-4.4-7.2   s-4.9-2.1-7.9-1.5c-2.9,0.6-5.1,2.1-6.5,4.5c-1.4,2.4-1.8,5.1-1.1,8.3l7.5,36.5c0.7,3.1,2.1,5.5,4.3,7.1c2.2,1.6,4.8,2.1,7.8,1.5   C226,68.6,228.2,67.2,229.7,64.8L229.7,64.8z" vector-effect="non-scaling-stroke"/>
	<path d="M252.6,65.8c-3.2-3.5-4.8-8.1-4.9-13.9L247,1.5c0-0.7,0.3-1,1-1l5.1-0.1c0.7,0,1,0.3,1,1l0.7,51.2c0,3.7,1,6.6,2.9,8.8   c1.9,2.2,4.3,3.3,7.3,3.3c3.1,0,5.5-1.2,7.3-3.5s2.7-5.3,2.7-8.9l-0.7-51.2c0-0.7,0.3-1,1-1l5.1-0.1c0.7,0,1,0.3,1,1l0.7,50.4   c0.1,5.8-1.4,10.5-4.5,14c-3.1,3.6-7.3,5.4-12.4,5.5C259.9,70.9,255.7,69.2,252.6,65.8L252.6,65.8z" vector-effect="non-scaling-stroke"/>
	<path d="M330.4,6.7l4.9,0.9c0.7,0.1,0.9,0.5,0.8,1.2l-12,66.8c-0.1,0.7-0.5,0.9-1.2,0.8l-5.8-1c-0.5-0.1-0.8-0.4-0.9-1l-10.1-54.2   c0-0.2-0.1-0.3-0.2-0.3c-0.1,0-0.2,0.1-0.3,0.3l-8.9,50.5c-0.1,0.6-0.5,0.9-1.2,0.8l-5-0.9c-0.7-0.1-0.9-0.5-0.8-1.2l12-66.8   c0.1-0.6,0.5-0.9,1.2-0.8l5.7,1c0.5,0.1,0.8,0.4,0.9,1l10.1,54.3c0,0.2,0.1,0.3,0.2,0.3c0.1,0,0.2-0.1,0.3-0.3l9.1-50.6   C329.4,6.9,329.7,6.6,330.4,6.7L330.4,6.7z" vector-effect="non-scaling-stroke"/>
	<path d="M334.7,78.8l25.4-62.9c0.2-0.6,0.7-0.8,1.3-0.5l14.2,5.8c4.8,1.9,7.9,5,9.5,9.3s1.3,9-0.8,14.3l-12.2,30.4   c-2.1,5.2-5.2,8.9-9.3,10.8s-8.5,2-13.3,0.1L335.3,80C334.7,79.8,334.5,79.4,334.7,78.8L334.7,78.8z M343.6,76.7l8.2,3.2   c2.7,1.1,5.3,0.9,7.8-0.5c2.5-1.4,4.5-3.9,6-7.5l12-29.8c1.5-3.6,1.8-6.8,1.1-9.6c-0.8-2.7-2.6-4.7-5.4-5.8l-8.1-3.3   c-0.2-0.1-0.4,0-0.5,0.2l-21.2,52.6C343.3,76.5,343.4,76.6,343.6,76.7L343.6,76.7z" vector-effect="non-scaling-stroke"/>
	<path d="M394.1,108.8l4.5-11.8c0.1-0.1,0.1-0.2,0-0.3s-0.1-0.2-0.2-0.3l-15.3-9.6c-0.1-0.1-0.2-0.1-0.3-0.1s-0.2,0.1-0.3,0.2   l-8.7,9.1c-0.4,0.5-0.8,0.5-1.4,0.2l-4.3-2.7c-0.3-0.2-0.4-0.4-0.5-0.6c0-0.3,0.1-0.5,0.3-0.8l48.8-49.4c0.4-0.4,0.9-0.5,1.4-0.2   l5.1,3.2c0.6,0.4,0.7,0.8,0.5,1.3l-23.3,65.5l-0.1,0.2c-0.3,0.5-0.7,0.6-1.2,0.3l-4.4-2.8C394,109.8,393.9,109.4,394.1,108.8   L394.1,108.8z M387.1,82.5l13.3,8.4c0.2,0.1,0.3,0,0.5-0.2L415,53.2c0-0.2,0-0.3,0-0.4c-0.1,0-0.2,0-0.3,0.1L387.1,82   C386.9,82.2,386.9,82.4,387.1,82.5L387.1,82.5z" vector-effect="non-scaling-stroke"/>
	<path d="M465.8,79.8l-2.7,3.2c-0.4,0.5-0.9,0.5-1.4,0.1l-10.1-8.5c-0.2-0.2-0.4-0.1-0.6,0l-40.2,47.6c-0.4,0.5-0.9,0.5-1.4,0.1   l-3.9-3.3c-0.5-0.4-0.5-0.9-0.1-1.4l40.2-47.6c0.2-0.2,0.2-0.4,0-0.6l-9.5-8c-0.5-0.4-0.5-0.9-0.1-1.4l2.7-3.2   c0.4-0.5,0.9-0.5,1.4-0.1l25.5,21.6C466.2,78.9,466.2,79.3,465.8,79.8L465.8,79.8z" vector-effect="non-scaling-stroke"/>
	<path d="M424.2,134.9l49.4-46.5c0.5-0.5,1-0.4,1.4,0l3.5,3.7c0.5,0.5,0.4,1,0,1.4L429.1,140c-0.5,0.5-1,0.4-1.4,0l-3.5-3.7   C423.7,135.8,423.7,135.3,424.2,134.9L424.2,134.9z" vector-effect="non-scaling-stroke"/>
	<path d="M440.4,148.2c0.8-4.4,3.3-8.2,7.5-11.2l29.7-21.2c4.3-3.1,8.6-4.2,13.1-3.5c4.4,0.7,8.1,3.1,11.1,7.3c3,4.2,4.2,8.6,3.4,13   s-3.2,8.2-7.5,11.3L468,165c-4.2,3-8.6,4.2-13,3.5s-8.2-3.2-11.2-7.4C440.8,156.9,439.7,152.6,440.4,148.2L440.4,148.2z    M455.6,161.7c2.8,0.4,5.4-0.4,8-2.2l30.3-21.6c2.7-1.9,4.2-4.2,4.8-6.9s-0.1-5.3-1.8-7.8c-1.7-2.4-4-3.8-6.7-4.1   c-2.7-0.3-5.4,0.5-8.1,2.3l-30.3,21.7c-2.6,1.9-4.2,4.1-4.7,6.8c-0.6,2.7,0,5.3,1.8,7.7C450.6,160,452.8,161.4,455.6,161.7z" vector-effect="non-scaling-stroke"/>
	<path d="M533.8,178.6l2.1,4.5c0.3,0.6,0.1,1-0.5,1.3l-61.8,28.1c-0.6,0.3-1,0.1-1.3-0.5l-2.4-5.4c-0.2-0.5-0.1-0.9,0.3-1.3   l38.9-39.1c0.2-0.1,0.2-0.3,0.1-0.4c-0.1-0.1-0.2-0.1-0.4,0l-46.7,21.3c-0.6,0.3-1,0.1-1.3-0.5l-2.1-4.6c-0.3-0.6-0.1-1,0.5-1.3   l61.8-28.1c0.6-0.3,1-0.1,1.3,0.5l2.4,5.3c0.2,0.5,0.1,0.9-0.3,1.3l-39,39.2c-0.2,0.1-0.2,0.3-0.1,0.4c0.1,0.1,0.2,0.1,0.4,0   l46.8-21.3C533.1,177.9,533.5,178,533.8,178.6L533.8,178.6z" vector-effect="non-scaling-stroke"/>
</g><g>
	<path d="M225.5,91.9l17.2,130.3h34.9L259.9,87.4C248.1,87.9,236.7,89.4,225.5,91.9L225.5,91.9z" class="st0_1676996862570" vector-effect="non-scaling-stroke"/>
	<path d="M258.4,222.2h34.9l17.2-130.3c-11.1-2.5-22.6-4-34.3-4.5L258.4,222.2L258.4,222.2z" class="st1_1676996862570" vector-effect="non-scaling-stroke"/>
	<polygon points="258.4,222.2 277.6,222.2 268,149" class="st2_1676996862570" vector-effect="non-scaling-stroke"/>
	<path d="M103.7,177.4l58.3,44.7h56.9L124.8,150C117,158.5,109.9,167.6,103.7,177.4z" class="st3_1676996862570" vector-effect="non-scaling-stroke"/>
	<path d="M200.5,222.2h43.7l-79.5-105.3c-9.9,6.2-19.2,13.2-27.8,21.1L200.5,222.2L200.5,222.2z" class="st4_1676996862570" vector-effect="non-scaling-stroke"/>
	<path d="M224.6,222.2h37.5L209.8,96c-11.1,3.5-21.8,7.9-32,13.3L224.6,222.2L224.6,222.2z" class="st5_1676996862570" vector-effect="non-scaling-stroke"/>
	<path d="M326,96l-52.3,126.2h37.5L358,109.2C347.8,103.9,337.1,99.5,326,96L326,96z" class="st6_1676996862570" vector-effect="non-scaling-stroke"/>
	<path d="M372.2,117.4l-80.4,104.7h43.7l64.2-83.6C391.2,130.7,382,123.6,372.2,117.4L372.2,117.4z" class="st7_1676996862570" vector-effect="non-scaling-stroke"/>
	<path d="M411.2,150l-94.1,72.2H374l58.3-44.7C426.1,167.6,419,158.5,411.2,150z" class="st8_1676996862570" vector-effect="non-scaling-stroke"/>
	<path d="M366.5,222.2h86.9c-3.4-10.6-7.8-20.9-12.9-30.7L366.5,222.2z" class="st9_1676996862570" vector-effect="non-scaling-stroke"/>
	<polygon points="200.5,222.2 218.9,222.2 175.2,188.7" class="st10_1676996862570" vector-effect="non-scaling-stroke"/>
	<polygon points="317.1,222.2 335.5,222.2 361.8,187.9" class="st11_1676996862570" vector-effect="non-scaling-stroke"/>
	<polygon points="366.5,222.2 374,222.2 382.9,215.3" class="st12_1676996862570" vector-effect="non-scaling-stroke"/>
	<polygon points="242.7,222.2 262.1,222.2 233.7,153.5" class="st13_1676996862570" vector-effect="non-scaling-stroke"/>
	<polygon points="224.6,222.2 244.2,222.2 200.8,164.7" class="st14_1676996862570" vector-effect="non-scaling-stroke"/>
	<polygon points="273.7,222.2 293.3,222.2 302.4,152.8" class="st15_1676996862570" vector-effect="non-scaling-stroke"/>
	<polygon points="291.9,222.2 311.2,222.2 333.9,167.4" class="st16_1676996862570" vector-effect="non-scaling-stroke"/>
	<path d="M82.6,222.2h86.9l-74-30.7C90.4,201.3,86,211.5,82.6,222.2L82.6,222.2z" vector-effect="non-scaling-stroke"/>
</g></g></svg>